<svg xmlns="http://www.w3.org/2000/svg" width="30" height="10" viewBox="0 0 30 10">
  <path id="hand-holding-usd-solid" d="M29.441,17.088a1.724,1.724,0,0,0-2.219,0l-4.812,3.849a3.315,3.315,0,0,1-2.083.729h-6.16a.833.833,0,0,1,0-1.667h4.078a1.729,1.729,0,0,0,1.732-1.385A1.625,1.625,0,0,0,20,18.33a1.667,1.667,0,0,0-1.667-1.664H10A6.128,6.128,0,0,0,6.14,18.036L3.719,20H.833A.833.833,0,0,0,0,20.833v5a.833.833,0,0,0,.833.833H19.415a3.333,3.333,0,0,0,2.083-.729l7.876-6.3a1.667,1.667,0,0,0,.067-2.547Z" transform="translate(0 -16.666)" fill="#979ca9"/>
</svg>
